<?xml version="1.0" encoding="utf-8"?>
<svg version="1.1" xmlns:xlink="http://www.w3.org/1999/xlink" width="50px" height="50px" xmlns="http://www.w3.org/2000/svg">
  <g transform="matrix(1 0 0 1 -5 0 )">
    <path d="M 5 0  L 55 0  L 55 50  L 5 50  L 5 0  " fill-rule="nonzero" fill="#cccccc" stroke="none" />
    <path d="M 9 4  L 51 4  L 51 46  L 9 46  L 9 4  " fill-rule="nonzero" fill="#ffffff" stroke="none" />
    <path d="M 34.75 15  C 32.65 15  31 13.35  31 11.25  C 31 9.15  32.65 7.5  34.75 7.5  C 36.85 7.5  38.5 9.15  38.5 11.25  C 38.5 13.35  36.85 15  34.75 15  " fill-rule="nonzero" fill="#cccccc" stroke="none" />
    <path d="M 11 45  L 11 23.55  L 20.75 13.8  L 34.4 21.6  L 42.2 19.65  L 50 21.6  L 50 45  L 11 45  " fill-rule="nonzero" fill="#169bd5" stroke="none" />
  </g>
</svg>