<?xml version="1.0" encoding="utf-8"?>
<svg version="1.1" xmlns:xlink="http://www.w3.org/1999/xlink" width="20px" height="10px" xmlns="http://www.w3.org/2000/svg">
  <g transform="matrix(1 0 0 1 -30 -15 )">
    <path d="M 18.5304761914063 9.8090476171875  L 1.46666666015625 9.8090476171875  C 1.11380951171875 9.8090476171875  0.7609523828125 9.6328571484375  0.54047619140625 9.368095234375  C 0.32 9.05952380859375  0.231904765625 8.70666666015625  0.32 8.35380953125  C 1.20238095703125 3.8571428515625  4.861904765625 0.50571427734375  9.27142857421875 0.1528571484375  C 10.7485714257813 0.1528571484375  12.3471428515625 0.340476191406249  13.9452380859375 0.9909523828125  C 14.408095234375 1.178095234375  14.5623809375 1.29952380859375  14.8271428515625 1.43142857421875  C 17.384285703125 2.88666666015625  19.148095234375 5.4  19.7214285742187 8.35380953125  C 19.8095238085937 8.7066666796875  19.7214285742187 9.05952380859375  19.4566666601562 9.368095234375  C 19.23619046875 9.63238095703125  18.8833333203125 9.8090476171875  18.5309523828125 9.8090476171875  Z " fill-rule="nonzero" fill="#1296db" stroke="none" transform="matrix(1 0 0 1 30 15 )" />
  </g>
</svg>