<?xml version="1.0" encoding="utf-8"?>
<svg version="1.1" xmlns:xlink="http://www.w3.org/1999/xlink" width="20px" height="20px" xmlns="http://www.w3.org/2000/svg">
  <g transform="matrix(1 0 0 1 -30 -5 )">
    <path d="M 19.9676725974777 5.66949424570859  C 19.9676725974777 5.99315639522374  19.8548112167974 6.30022265256164  19.6594124544762 6.50818935848615  L 10.8481593168548 10.787860340969  C 10.4926515206483 10.9882953844615  10.0868995347649 10.9882953844615  9.73139173855847 10.787860340969  L 3.41777422049897 7.72176613978558  C 3.05875813177076 8.39365337538701  2.88549970867764 9.19772585685437  2.92514604814328 10.0079970191575  C 3.14405340290656 10.2473716920513  3.2699350377928 10.5959144820251  3.2699350377928 10.962653482853  C 3.2699350377928 11.3022513488424  3.16193903552025 11.6274730879473  2.97042040942556 11.8646189841233  C 3.04027603741743 13.6056187846343  3.2552717081362 15.3323245102806  3.61180718687253 17.0158214119163  C 3.75948784047636 17.8805119737536  3.40483866971312 18.0296437283965  3.40483868448383 18.0296437283965  C 3.40483869925454 18.0296437283965  1.66069780147245 18.0515346230008  1.3405433884927 18.0296437283965  C 1.02038897551294 18.0077528337922  1.15944594336357 16.9911941601734  1.15944594336357 16.9911941601734  C 1.45795769771379 15.296715635616  1.67110707680484 13.5798189958645  1.79759885157746 11.8509371796825  C 1.61028262702302 11.616475083108  1.50601846022012 11.2955126333193  1.50870529760668 10.9616193473549  C 1.5041269788097 10.5370001918534  1.6745574102792 10.1401623142423  1.95821502642572 9.9149606889683  L 1.96576076069145 9.8260289038608  C 1.93993892271817 8.92678429074191  2.15291282601983 8.0426053084078  2.57049687738005 7.31541630792665  L 0.915826750675067 6.51229390356787  C 0.719272545928944 6.30433645599051  0.605632624803589 5.99632782982613  0.605632624803589 5.67154651824946  C 0.605632624803589 5.34676520667278  0.719272545928944 5.03875658050841  0.915826750675067 4.83079913293104  L 9.72923582081285 0.549759981252563  C 10.0848579074143 0.350010002509495  10.4903813125077 0.350010002509495  10.8460033991091 0.549759981252563  L 19.6594124544762 4.83079913293104  C 19.8548112167974 5.03876583885555  19.9676725974777 5.34583209619345  19.9676725974777 5.66949424570859  Z M 10.825522143599 12.3339051614037  L 10.825522143599 12.3393778756811  L 15.7604275529091 9.94232431659734  L 15.7604275529091 17.5179439498506  C 12.4240076340413 20.2922817524704  8.10919109383144 20.2922817524704  4.77277117496365 17.5179439498506  L 4.77277117496365 9.94232431659734  L 9.70875455053198 12.3393778756811  C 10.0650950350224 12.5367060256222  10.4703928084958 12.5347198658113  10.825522143599 12.3339051614037  Z " fill-rule="nonzero" fill="#1296db" stroke="none" transform="matrix(1 0 0 1 30 5 )" />
  </g>
</svg>