<?xml version="1.0" encoding="utf-8"?>
<svg version="1.1" xmlns:xlink="http://www.w3.org/1999/xlink" width="110px" height="60px" xmlns="http://www.w3.org/2000/svg">
  <g transform="matrix(1 0 0 1 -245 0 )">
    <path d="M 245 0  L 355 0  L 355 60  L 245 60  L 245 0  " fill-rule="nonzero" fill="#cccccc" stroke="none" />
    <path d="M 249 4  L 351 4  L 351 56  L 249 56  L 249 4  " fill-rule="nonzero" fill="#ffffff" stroke="none" />
    <path d="M 306.7 18  C 304.18 18  302.2 16.02  302.2 13.5  C 302.2 10.98  304.18 9  306.7 9  C 309.22 9  311.2 10.98  311.2 13.5  C 311.2 16.02  309.22 18  306.7 18  " fill-rule="nonzero" fill="#cccccc" stroke="none" />
    <path d="M 251 55  L 251 28.05  L 275.75 15.8  L 310.4 38.9636363636364  L 330.2 23.15  L 350 38.9636363636364  L 350 55  L 251 55  " fill-rule="nonzero" fill="#169bd5" stroke="none" />
  </g>
</svg>