<?xml version="1.0" encoding="utf-8"?>
<svg version="1.1" xmlns:xlink="http://www.w3.org/1999/xlink" width="20px" height="20px" xmlns="http://www.w3.org/2000/svg">
  <defs>
    <mask fill="white" id="clip14">
      <path d="M 11.129 1.0089696969697  C 10.5179680852107 0.47149828751578  9.58603191478927 0.471498287515779  8.975 1.0089696969697  L 0.265 9.02884848484848  C 0.0993949873851191 9.17640096565652  0.00514113910879451 9.38450136502682  0.00514113910879451 9.60258349641888  C 0.00514113910879451 10.0328969960446  0.364880342619752 10.3817350115704  0.808641139108795 10.3817350115704  C 1.0047585175152 10.3817350115704  1.19410460073447 10.3121818699787  1.341 10.1861818181818  L 1.4795 10.0586666666667  L 1.4795 18.4290909090909  C 1.47949917029638 18.4297373734248  1.47949875544445 18.4303838381962  1.47949875544445 18.4310303030308  C 1.47949875544445 19.2916573022822  2.19897716246636 19.9893333333338  3.08649875544445 19.9893333333338  L 7.763 19.9893333333333  L 7.763 15.2979393939394  C 7.76299933706481 15.2974545098706  7.76299900559711 15.296969625428  7.76299900559711 15.2964847409332  C 7.76299900559711 14.6905112190582  8.26958881116357 14.199272619721  8.89449900559711 14.199272619721  L 11.0955 14.1992727272727  C 11.7209111888364 14.199272619721  12.2275009944029 14.6905112190582  12.2275009944029 15.2964847409332  C 12.2275009944029 15.2969696254283  12.2275006629352 15.2974545098704  12.2275 15.2979393939394  L 12.2275 19.9893333333333  L 17.015 19.9893333333333  C 17.9030228376309 19.9893334091369  18.6225012446528 19.2916573780854  18.6225012446528 18.4310303788339  C 18.6225012446528 18.4303838887327  18.6225008297685 18.4297373986914  18.6225 18.4290909090909  L 18.6225 10.1609696969697  C 18.9795 10.4741818181818  19.486 10.4504242424242  19.783 10.1294545454545  C 19.9163436015176 9.98626552355553  19.9901601770737 9.80019569064244  19.9901601770737 9.60726479005076  C 19.9901601770737 9.3867617926419  19.8938095710812 9.17658407237781  19.725 9.02884848484848  L 11.129 1.00945454545455  Z " fill-rule="evenodd" />
    </mask>
  </defs>
  <g transform="matrix(1 0 0 1 -30 -5 )">
    <path d="M 11.129 1.0089696969697  C 10.5179680852107 0.47149828751578  9.58603191478927 0.471498287515779  8.975 1.0089696969697  L 0.265 9.02884848484848  C 0.0993949873851191 9.17640096565652  0.00514113910879451 9.38450136502682  0.00514113910879451 9.60258349641888  C 0.00514113910879451 10.0328969960446  0.364880342619752 10.3817350115704  0.808641139108795 10.3817350115704  C 1.0047585175152 10.3817350115704  1.19410460073447 10.3121818699787  1.341 10.1861818181818  L 1.4795 10.0586666666667  L 1.4795 18.4290909090909  C 1.47949917029638 18.4297373734248  1.47949875544445 18.4303838381962  1.47949875544445 18.4310303030308  C 1.47949875544445 19.2916573022822  2.19897716246636 19.9893333333338  3.08649875544445 19.9893333333338  L 7.763 19.9893333333333  L 7.763 15.2979393939394  C 7.76299933706481 15.2974545098706  7.76299900559711 15.296969625428  7.76299900559711 15.2964847409332  C 7.76299900559711 14.6905112190582  8.26958881116357 14.199272619721  8.89449900559711 14.199272619721  L 11.0955 14.1992727272727  C 11.7209111888364 14.199272619721  12.2275009944029 14.6905112190582  12.2275009944029 15.2964847409332  C 12.2275009944029 15.2969696254283  12.2275006629352 15.2974545098704  12.2275 15.2979393939394  L 12.2275 19.9893333333333  L 17.015 19.9893333333333  C 17.9030228376309 19.9893334091369  18.6225012446528 19.2916573780854  18.6225012446528 18.4310303788339  C 18.6225012446528 18.4303838887327  18.6225008297685 18.4297373986914  18.6225 18.4290909090909  L 18.6225 10.1609696969697  C 18.9795 10.4741818181818  19.486 10.4504242424242  19.783 10.1294545454545  C 19.9163436015176 9.98626552355553  19.9901601770737 9.80019569064244  19.9901601770737 9.60726479005076  C 19.9901601770737 9.3867617926419  19.8938095710812 9.17658407237781  19.725 9.02884848484848  L 11.129 1.00945454545455  Z " fill-rule="nonzero" fill="#1296db" stroke="none" fill-opacity="0" transform="matrix(1 0 0 1 30 5 )" />
    <path d="M 11.129 1.0089696969697  C 10.5179680852107 0.47149828751578  9.58603191478927 0.471498287515779  8.975 1.0089696969697  L 0.265 9.02884848484848  C 0.0993949873851191 9.17640096565652  0.00514113910879451 9.38450136502682  0.00514113910879451 9.60258349641888  C 0.00514113910879451 10.0328969960446  0.364880342619752 10.3817350115704  0.808641139108795 10.3817350115704  C 1.0047585175152 10.3817350115704  1.19410460073447 10.3121818699787  1.341 10.1861818181818  L 1.4795 10.0586666666667  L 1.4795 18.4290909090909  C 1.47949917029638 18.4297373734248  1.47949875544445 18.4303838381962  1.47949875544445 18.4310303030308  C 1.47949875544445 19.2916573022822  2.19897716246636 19.9893333333338  3.08649875544445 19.9893333333338  L 7.763 19.9893333333333  L 7.763 15.2979393939394  C 7.76299933706481 15.2974545098706  7.76299900559711 15.296969625428  7.76299900559711 15.2964847409332  C 7.76299900559711 14.6905112190582  8.26958881116357 14.199272619721  8.89449900559711 14.199272619721  L 11.0955 14.1992727272727  C 11.7209111888364 14.199272619721  12.2275009944029 14.6905112190582  12.2275009944029 15.2964847409332  C 12.2275009944029 15.2969696254283  12.2275006629352 15.2974545098704  12.2275 15.2979393939394  L 12.2275 19.9893333333333  L 17.015 19.9893333333333  C 17.9030228376309 19.9893334091369  18.6225012446528 19.2916573780854  18.6225012446528 18.4310303788339  C 18.6225012446528 18.4303838887327  18.6225008297685 18.4297373986914  18.6225 18.4290909090909  L 18.6225 10.1609696969697  C 18.9795 10.4741818181818  19.486 10.4504242424242  19.783 10.1294545454545  C 19.9163436015176 9.98626552355553  19.9901601770737 9.80019569064244  19.9901601770737 9.60726479005076  C 19.9901601770737 9.3867617926419  19.8938095710812 9.17658407237781  19.725 9.02884848484848  L 11.129 1.00945454545455  Z " stroke-width="2" stroke="#333333" fill="none" transform="matrix(1 0 0 1 30 5 )" mask="url(#clip14)" />
  </g>
</svg>