<?xml version="1.0" encoding="utf-8"?>
<svg version="1.1" xmlns:xlink="http://www.w3.org/1999/xlink" width="20px" height="20px" xmlns="http://www.w3.org/2000/svg">
  <g transform="matrix(1 0 0 1 -30 -5 )">
    <path d="M 11.4486560112981 11.4766349322115  C 16.180896125 6.737060546875  19.1651329627404 2.04040527331731  18.1136145959135 0.986985426682692  C 17.6156985185096 0.488254423798077  16.3006893569712 0.897344224759615  14.5529577288462 1.96787739038462  C 13.1685273211597 1.17772735953675  11.6019241101896 0.76238838294755  10.0078775673077 0.76288245  C 4.91299807644231 0.76288245  0.782983803605769 4.89914443990385  0.782983803605769 10.000814925  C 0.782717979715972 11.5923905685036  1.1957821064756 13.1567551077392  1.98173104567308 14.5407339242788  C 0.891911433173077 16.3137280860577  0.471684382451923 17.6485669533654  0.973946715384616 18.1516441932692  C 2.02600835961539 19.2047923920673  6.71532936153846 16.2162093358173  11.4486560112981 11.4766349322115  Z M 7.40964114254808 11.3519521860577  C 7.4102414494405 12.3442458744376  6.60639445683251 13.1491873625367  5.61410087019231 13.149937215625  C 4.62212559776047 13.1493375660603  3.81828862105031 12.3450145226131  3.81828862105031 11.353039068937  C 3.81828862105031 11.352676774619  3.81828873062008 11.3523144803095  3.81828894975962 11.3519521860577  C 3.81828894975962 10.3588364177885  4.62234328605769 9.55369550865385  5.61410087019231 9.55369550841346  C 6.60558680649039 9.55369550841346  7.40964114254808 10.3588364177885  7.40964114254808 11.3519521860577  Z M 11.0001784105769 5.50843290456731  C 11.0007216879808 6.74928433293269  9.99538211514423 7.75571046033654  8.75588888918269 7.75571047884615  C 7.51639566346154 7.75571047884615  6.51187099711539 6.74955598100961  6.51187099735577 5.50843290456731  C 6.51187099735577 4.26703819879808  7.51639564495192 3.26088370072115  8.75588888918269 3.26088370072115  C 9.99538211490385 3.26088370072115  11.0001784103365 4.26703819855769  11.0001784105769 5.50843290456731  Z M 19.2324996834135 10.0016298319712  C 19.2350590541624 8.29000840839582  18.7601889722275 6.61159479143984  17.8612610507212 5.155029296875  C 16.6994568514423 7.13990263100962  14.6205960788462 9.742756940625  12.0068761858173 12.3600081639423  C 9.59579971346154 14.7748875961538  7.19640376826923 16.7334118598558  5.28297172524038 17.936233690625  C 6.7104540787121 18.7912689523309  8.34363869002569 19.2418900594125  10.0076059194712 19.2398339550481  C 15.1024854103365 19.2398339550481  19.2324996831731 15.1033003173077  19.2324996834135 10.0016298319712  Z M 14.5912596404756 14.9498239713267  C 14.5912596404756 15.6934681812033  13.9886552831596 16.2964368965715  13.2450112091346 16.296886396875  C 12.5012172146953 16.29643676031  11.8984913950903 15.6933464722049  11.8984913950903 14.949552341859  C 11.8984913950903 14.9491900749771  11.8984915411981 14.9488278081101  11.8984918334135 14.9484655413461  C 11.898491541188 14.9481032683334  11.8984913950752 14.947740995214  11.8984913950752 14.9473787220833  C 11.8984913950752 14.2035845917315  12.5012172146894 13.600494303624  13.2450112091346 13.6000446670673  C 13.9886990355235 13.6006441706524  14.5912593940216 14.2036904624723  14.5912593940216 14.9473785304978  C 14.5912593940216 14.9477408674929  14.5912592478574 14.948103204469  14.5912589555288 14.9484655413462  C 14.59125941216 14.9489183511972  14.5912596404756 14.9493711612454  14.5912596404756 14.9498239713267  Z " fill-rule="nonzero" fill="#1296db" stroke="none" transform="matrix(1 0 0 1 30 5 )" />
  </g>
</svg>