<?xml version="1.0" encoding="utf-8"?>
<svg version="1.1" xmlns:xlink="http://www.w3.org/1999/xlink" width="24px" height="12px" xmlns="http://www.w3.org/2000/svg">
  <g transform="matrix(1 0 0 1 0 -4 )">
    <path d="M 3.30803571428571 10.0703125  C 3.38839285714286 10.1171875  3.42857142857143 10.1770833333333  3.42857142857143 10.25  L 3.42857142857143 11.75  C 3.42857142857143 11.8229166666667  3.38839285714286 11.8828125  3.30803571428571 11.9296875  C 3.22767857142857 11.9765625  3.12499999999998 12  3 12  L 0.428571428571429 12  C 0.303571428571445 12  0.200892857142857 11.9765625  0.120535714285714 11.9296875  C 0.0401785714285714 11.8828125  0 11.8229166666667  0 11.75  L 0 10.25  C 0 10.1770833333333  0.0401785714285714 10.1171875  0.120535714285714 10.0703125  C 0.200892857142857 10.0234375  0.303571428571445 10  0.428571428571429 10  L 3 10  C 3.12499999999998 10  3.22767857142857 10.0234375  3.30803571428571 10.0703125  Z M 8.45089285714286 9.0703125  C 8.53125 9.1171875  8.57142857142857 9.17708333333331  8.57142857142857 9.25  L 8.57142857142857 11.75  C 8.57142857142857 11.8229166666667  8.53125 11.8828125  8.45089285714286 11.9296875  C 8.37053571428572 11.9765625  8.26785714285713 12  8.14285714285714 12  L 5.57142857142857 12  C 5.44642857142859 12  5.34375 11.9765625  5.26339285714286 11.9296875  C 5.18303571428571 11.8828125  5.14285714285714 11.8229166666667  5.14285714285714 11.75  L 5.14285714285714 9.25  C 5.14285714285714 9.17708333333331  5.18303571428571 9.1171875  5.26339285714286 9.0703125  C 5.34375 9.0234375  5.44642857142859 9  5.57142857142857 9  L 8.14285714285714 9  C 8.26785714285713 9  8.37053571428572 9.0234375  8.45089285714286 9.0703125  Z M 13.59375 7.0703125  C 13.6741071428571 7.1171875  13.7142857142857 7.17708333333331  13.7142857142857 7.25  L 13.7142857142857 11.75  C 13.7142857142857 11.8229166666667  13.6741071428571 11.8828125  13.59375 11.9296875  C 13.5133928571429 11.9765625  13.4107142857143 12  13.2857142857143 12  L 10.7142857142857 12  C 10.5892857142857 12  10.4866071428571 11.9765625  10.40625 11.9296875  C 10.3258928571429 11.8828125  10.2857142857143 11.8229166666667  10.2857142857143 11.75  L 10.2857142857143 7.25  C 10.2857142857143 7.17708333333331  10.3258928571429 7.1171875  10.40625 7.0703125  C 10.4866071428571 7.0234375  10.5892857142857 7  10.7142857142857 7  L 13.2857142857143 7  C 13.4107142857143 7  13.5133928571429 7.0234375  13.59375 7.0703125  Z M 18.7366071428571 4.0703125  C 18.8169642857143 4.1171875  18.8571428571429 4.17708333333331  18.8571428571429 4.25  L 18.8571428571429 11.75  C 18.8571428571429 11.8229166666667  18.8169642857143 11.8828125  18.7366071428571 11.9296875  C 18.65625 11.9765625  18.5535714285714 12  18.4285714285714 12  L 15.8571428571429 12  C 15.7321428571429 12  15.6294642857143 11.9765625  15.5491071428571 11.9296875  C 15.46875 11.8828125  15.4285714285714 11.8229166666667  15.4285714285714 11.75  L 15.4285714285714 4.25  C 15.4285714285714 4.17708333333331  15.46875 4.1171875  15.5491071428571 4.0703125  C 15.6294642857143 4.0234375  15.7321428571429 4  15.8571428571429 4  L 18.4285714285714 4  C 18.5535714285714 4  18.65625 4.0234375  18.7366071428571 4.0703125  Z M 23.8794642857143 0.0703125  C 23.9598214285714 0.1171875  24 0.177083333333314  24 0.25  L 24 11.75  C 24 11.8229166666667  23.9598214285714 11.8828125  23.8794642857143 11.9296875  C 23.7991071428571 11.9765625  23.6964285714286 12  23.5714285714286 12  L 21 12  C 20.875 12  20.7723214285714 11.9765625  20.6919642857143 11.9296875  C 20.6116071428571 11.8828125  20.5714285714286 11.8229166666667  20.5714285714286 11.75  L 20.5714285714286 0.25  C 20.5714285714286 0.177083333333314  20.6116071428571 0.1171875  20.6919642857143 0.0703125  C 20.7723214285714 0.0234375  20.875 0  21 0  L 23.5714285714286 0  C 23.6964285714286 0  23.7991071428571 0.0234375  23.8794642857143 0.0703125  Z " fill-rule="nonzero" fill="#ffffff" stroke="none" transform="matrix(1 0 0 1 0 4 )" />
  </g>
</svg>