<?xml version="1.0" encoding="utf-8"?>
<svg version="1.1" xmlns:xlink="http://www.w3.org/1999/xlink" width="30px" height="30px" xmlns="http://www.w3.org/2000/svg">
  <g>
    <path d="M 15.75 7.77275390625  C 13.568173828125 7.77275390625  11.863623046875 6  11.863623046875 3.886376953125  C 11.863623046875 1.77275390625  13.636376953125 0  15.75 0  C 17.863623046875 0  19.636376953125 1.77275390625  19.636376953125 3.886376953125  C 19.70455078125 6.068173828125  17.931826171875 7.772724609375  15.75 7.772724609375  Z M 7.5 10.909072265625  C 5.52275390625 10.909072265625  3.95455078125 9.340869140625  3.95455078125 7.36359375  C 3.95455078125 5.386318359375  5.522724609375 3.75  7.5 3.75  C 9.47724609375 3.75  11.04544921875 5.318173828125  11.04544921875 7.29544921875  C 11.04544921875 9.272724609375  9.4091015625 10.9091015625  7.5 10.9091015625  Z M 7.0908984375 15.818173828125  C 7.0908984375 17.522724609375  5.6591015625 18.95455078125  3.95455078125 18.95455078125  C 2.25 18.95455078125  0.818173828125 17.522724609375  0.818173828125 15.818173828125  C 0.818173828125 14.113623046875  2.25 12.681826171875  3.95455078125 12.681826171875  C 5.6591015625 12.681826171875  7.0908984375 14.113623046875  7.0908984375 15.818173828125  Z M 7.5 26.931796875  C 6 26.931796875  4.8408984375 25.70455078125  4.8408984375 24.272724609375  C 4.8408984375 22.772724609375  6.068173828125 21.613623046875  7.5 21.613623046875  C 9 21.613623046875  10.1591015625 22.8408984375  10.1591015625 24.272724609375  C 10.1591015625 25.772724609375  8.931826171875 26.931826171875  7.5 26.931826171875  Z M 18.068173828125 27.681826171875  C 18.136376953125 28.97724609375  17.04544921875 30  15.75 30  C 14.45455078125 30  13.431826171875 28.97724609375  13.431826171875 27.681826171875  C 13.431826171875 26.38640625  14.45455078125 25.363623046875  15.75 25.363623046875  C 17.04544921875 25.363623046875  18.068173828125 26.386376953125  18.068173828125 27.681826171875  Z M 26.113623046875 24.136376953125  C 26.113623046875 25.227275390625  25.227275390625 26.04544921875  24.20455078125 26.04544921875  C 23.181796875 26.04544921875  22.29544921875 25.227275390625  22.29544921875 24.136376953125  C 22.29544921875 23.113623046875  23.113623046875 22.227275390625  24.20455078125 22.227275390625  C 25.227275390625 22.227275390625  26.113623046875 23.04544921875  26.113623046875 24.136376953125  Z M 27.681796875 17.386376953125  C 26.863623046875 17.386376953125  26.113623046875 16.70455078125  26.113623046875 15.818173828125  C 26.113623046875 15  26.79544921875 14.25  27.681826171875 14.25  C 28.5 14.25  29.25 14.931826171875  29.25 15.818173828125  C 29.181826171875 16.70455078125  28.5 17.386376953125  27.681826171875 17.386376953125  Z M 22.9773046875 7.431826171875  C 22.9773046875 8.113623046875  23.52275390625 8.659072265625  24.20455078125 8.659072265625  C 24.88634765625 8.659072265625  25.43185546875 8.113623046875  25.43185546875 7.431826171875  C 25.43185546875 6.750029296875  24.88640625 6.20455078125  24.204580078125 6.20455078125  C 23.52275390625 6.272724609375  22.9773046875 6.818173828125  22.9773046875 7.431796875  Z " fill-rule="nonzero" fill="#1296db" stroke="none" />
  </g>
</svg>