<?xml version="1.0" encoding="utf-8"?>
<svg version="1.1" xmlns:xlink="http://www.w3.org/1999/xlink" width="135px" height="80px" xmlns="http://www.w3.org/2000/svg">
  <g>
    <path d="M 0 0  L 135 0  L 135 80  L 0 80  L 0 0  " fill-rule="nonzero" fill="#cccccc" stroke="none" />
    <path d="M 6 6  L 129 6  L 129 74  L 6 74  L 6 6  " fill-rule="nonzero" fill="#ffffff" stroke="none" />
    <path d="M 76.2 24  C 72.84 24  70.2 21.36  70.2 18  C 70.2 14.64  72.84 12  76.2 12  C 79.56 12  82.2 14.64  82.2 18  C 82.2 21.36  79.56 24  76.2 24  " fill-rule="nonzero" fill="#cccccc" stroke="none" />
    <path d="M 8 72  L 8 36.8  L 37.75 20.8  L 79.4 49.2444444444444  L 103.2 30.4  L 127 49.2444444444444  L 127 72  L 8 72  " fill-rule="nonzero" fill="#169bd5" stroke="none" />
  </g>
</svg>