<?xml version="1.0" encoding="utf-8"?>
<svg version="1.1" xmlns:xlink="http://www.w3.org/1999/xlink" width="20px" height="20px" xmlns="http://www.w3.org/2000/svg">
  <g transform="matrix(1 0 0 1 -313 -10 )">
    <path d="M 1.66651785714286 5.83325892857143  C 1.66674107142857 6.29174107142857  1.29174107142857 6.66674107142857  0.833258928571428 6.66674107142857  C 0.375 6.66674107142857  0 6.29174107142857  0 5.83348214285714  L 0 2.08348214285714  C 0 0.916741071428571  0.916741071428571 0  2.08325892857143 0  L 5.83325892857143 0  C 6.29151785714286 0  6.66651785714286 0.375  6.66651785714286 0.833258928571429  C 6.66651785714286 1.29151785714286  6.29151785714286 1.66651785714286  5.83325892857143 1.66651785714286  L 2.08325892857143 1.66651785714286  C 1.875 1.66651785714286  1.66651785714286 1.875  1.66651785714286 2.08325892857143  L 1.66651785714286 5.83325892857143  Z M 20 5.83348214285714  C 20 6.29174107142857  19.625 6.66674107142857  19.1667410714286 6.66674107142857  C 18.7084821428571 6.66674107142857  18.3334821428571 6.29174107142857  18.3334821428571 5.83348214285714  L 18.3334821428571 2.08348214285714  C 18.3334821428571 1.87522321428571  18.125 1.66674107142857  17.9167410714286 1.66674107142857  L 14.1667410714286 1.66674107142857  C 13.7084821428571 1.66674107142857  13.3334821428571 1.29174107142857  13.3334821428571 0.833482142857143  C 13.3334821428571 0.375223214285715  13.7084821428571 0.000223214285714717  14.1667410714286 0.000223214285714717  L 17.9167410714286 0.000223214285714717  C 19.0832589285714 0.000223214285714717  20 0.916964285714286  20 2.08348214285714  L 20 5.83348214285714  Z M 20 17.9167410714286  C 20 19.0832589285714  19.0832589285714 20  17.9167410714286 20  L 14.1667410714286 20  C 13.7084821428571 20  13.3334821428571 19.625  13.3334821428571 19.1667410714286  C 13.3334821428571 18.7084821428571  13.7084821428571 18.3334821428571  14.1667410714286 18.3334821428571  L 17.9167410714286 18.3334821428571  C 18.125 18.3334821428571  18.3334821428571 18.125  18.3334821428571 17.9167410714286  L 18.3334821428571 14.1667410714286  C 18.3334821428571 13.7084821428571  18.7084821428571 13.3334821428571  19.1667410714286 13.3334821428571  C 19.625 13.3334821428571  20 13.7084821428571  20 14.1667410714286  L 20 17.9167410714286  Z M 6.66651785714286 19.1667410714286  C 6.66674107142857 19.625  6.29174107142857 20  5.83325892857143 20  L 2.08325892857143 20  C 0.916741071428571 20  0 19.0832589285714  0 17.9167410714286  L 0 14.1667410714286  C 0 13.7084821428571  0.375 13.3334821428571  0.833258928571428 13.3334821428571  C 1.29151785714286 13.3334821428571  1.66651785714286 13.7084821428571  1.66651785714286 14.1667410714286  L 1.66651785714286 17.9167410714286  C 1.66651785714286 18.125  1.875 18.3334821428571  2.08325892857143 18.3334821428571  L 5.83325892857143 18.3334821428571  C 6.29151785714286 18.3334821428571  6.66651785714286 18.7084821428571  6.66651785714286 19.1667410714286  Z M 19.9997767857143 10.2082589285714  C 20 10.6667410714286  19.625 11.0417410714286  19.1667410714286 11  L 0.833258928571428 11  C 0.375 11.0417410714286  0 10.6667410714286  0 10.2084821428571  C 0 9.75  0.375 9.375  0.833258928571428 9.375  L 19.1665178571429 9.375  C 19.6247767857143 9.375  19.9997767857143 9.75  19.9997767857143 10.2082589285714  Z " fill-rule="nonzero" fill="#ffffff" stroke="none" transform="matrix(1 0 0 1 313 10 )" />
  </g>
</svg>